<svg class="lines" preserveaspectratio="xMidYMid meet" height="100%" width="100%" viewBox="0 0 971.729 100">
  <g id="svgGroup" stroke-linecap="round" fill-rule="evenodd" font-size="9pt" stroke-width="0.15mm">
      <path d="M 72.607 75.977 L 51.514 75.977 L 47.998 62.598 L 24.805 62.598 L 21.191 75.977 L 0 75.977 L 23.291 4.297 L 49.023 4.297 L 72.607 75.977 Z M 28.809 46.777 L 43.994 46.777 L 40.918 35.059 Q 39.957 31.564 38.625 26.234 A 753.143 753.143 0 0 1 38.306 24.951 A 377.846 377.846 0 0 1 37.602 22.07 Q 36.746 18.5 36.363 16.511 A 43.02 43.02 0 0 1 36.279 16.064 A 71.366 71.366 0 0 1 36.006 17.511 Q 35.516 19.983 34.546 24.268 A 195.923 195.923 0 0 1 33.829 27.297 Q 32.643 32.165 30.33 40.998 A 2379.092 2379.092 0 0 1 28.809 46.777 Z" id="0" vector-effect="non-scaling-stroke"/><path d="M 117.334 20.068 L 118.408 20.264 L 116.699 38.281 A 15.666 15.666 0 0 0 115.058 37.972 Q 113.34 37.734 110.991 37.701 A 55.161 55.161 0 0 0 110.205 37.695 A 21.667 21.667 0 0 0 106.96 37.921 Q 105.297 38.174 103.972 38.709 A 8.354 8.354 0 0 0 101.123 40.552 Q 98.291 43.408 98.291 48.779 L 98.291 75.977 L 79.199 75.977 L 79.199 20.654 L 93.408 20.654 L 96.387 29.492 L 97.314 29.492 A 19.117 19.117 0 0 1 103.979 22.388 A 18.435 18.435 0 0 1 107.993 20.445 A 14.421 14.421 0 0 1 112.598 19.678 A 28.555 28.555 0 0 1 116.196 19.897 A 25.088 25.088 0 0 1 117.334 20.068 Z" id="1" vector-effect="non-scaling-stroke"/><path d="M 162.451 59.961 L 162.451 73.877 A 42.07 42.07 0 0 1 158.342 75.408 A 32.84 32.84 0 0 1 155.103 76.245 A 32.886 32.886 0 0 1 151.819 76.729 Q 150.125 76.897 148.219 76.939 A 58.794 58.794 0 0 1 146.924 76.953 A 30.99 30.99 0 0 1 141.938 76.58 Q 139.32 76.153 137.262 75.233 A 12.351 12.351 0 0 1 133.057 72.241 Q 129.902 68.742 129.09 62.457 A 36.704 36.704 0 0 1 128.809 57.764 L 128.809 34.961 L 122.119 34.961 L 122.119 27.197 L 130.615 21.191 L 135.547 9.57 L 148.047 9.57 L 148.047 20.654 L 161.621 20.654 L 161.621 34.961 L 148.047 34.961 L 148.047 56.494 A 8.053 8.053 0 0 0 148.295 58.587 Q 149.029 61.307 151.938 61.77 A 8.186 8.186 0 0 0 153.223 61.865 A 19.556 19.556 0 0 0 156.329 61.597 Q 157.884 61.346 159.627 60.86 A 43.323 43.323 0 0 0 162.451 59.961 Z" id="2" vector-effect="non-scaling-stroke"/><path d="M 226.123 75.977 L 206.934 75.977 L 206.934 45.801 A 28.109 28.109 0 0 0 206.702 42.017 Q 206.133 37.855 204.168 36.05 A 5.437 5.437 0 0 0 200.342 34.668 Q 195.892 34.668 193.664 38.21 A 9.633 9.633 0 0 0 193.433 38.599 A 12.841 12.841 0 0 0 192.309 41.391 Q 191.211 45.24 191.211 51.66 L 191.211 75.977 L 172.119 75.977 L 172.119 0 L 191.211 0 L 191.211 10.791 A 164.138 164.138 0 0 1 191.061 17.592 Q 190.917 21.061 190.634 24.894 A 277.453 277.453 0 0 1 190.43 27.49 L 191.309 27.49 A 19.416 19.416 0 0 1 193.7 24.418 A 13.847 13.847 0 0 1 197.803 21.436 A 18.287 18.287 0 0 1 202.698 19.968 A 24.446 24.446 0 0 1 206.543 19.678 A 25.854 25.854 0 0 1 212.434 20.31 Q 216.987 21.374 220.155 24.234 A 16.284 16.284 0 0 1 220.972 25.024 A 17.552 17.552 0 0 1 225.24 32.757 Q 225.985 35.499 226.101 38.763 A 34.415 34.415 0 0 1 226.123 39.99 L 226.123 75.977 Z" id="3" vector-effect="non-scaling-stroke"/><path d="M 292.92 75.977 L 278.516 75.977 L 276.123 69.092 L 275 69.092 A 15.53 15.53 0 0 1 268.343 74.923 A 17.105 17.105 0 0 1 268.335 74.927 A 20.387 20.387 0 0 1 263.057 76.565 A 27.823 27.823 0 0 1 258.301 76.953 A 25.295 25.295 0 0 1 252.502 76.327 Q 247.424 75.132 244.092 71.655 A 17.286 17.286 0 0 1 239.986 64.312 Q 239.211 61.608 239.054 58.373 A 34.67 34.67 0 0 1 239.014 56.689 L 239.014 20.654 L 258.105 20.654 L 258.105 50.879 Q 258.105 56.299 259.644 59.082 A 5.075 5.075 0 0 0 263.278 61.737 A 7.469 7.469 0 0 0 264.697 61.865 A 9.748 9.748 0 0 0 267.503 61.486 A 6.927 6.927 0 0 0 271.729 57.983 Q 273.828 54.102 273.828 44.873 L 273.828 20.654 L 292.92 20.654 L 292.92 75.977 Z" id="4" vector-effect="non-scaling-stroke"/><path d="M 344.238 20.068 L 345.313 20.264 L 343.604 38.281 A 15.666 15.666 0 0 0 341.962 37.972 Q 340.244 37.734 337.895 37.701 A 55.161 55.161 0 0 0 337.109 37.695 A 21.667 21.667 0 0 0 333.864 37.921 Q 332.201 38.174 330.876 38.709 A 8.354 8.354 0 0 0 328.027 40.552 Q 325.195 43.408 325.195 48.779 L 325.195 75.977 L 306.104 75.977 L 306.104 20.654 L 320.313 20.654 L 323.291 29.492 L 324.219 29.492 A 19.117 19.117 0 0 1 330.884 22.388 A 18.435 18.435 0 0 1 334.897 20.445 A 14.421 14.421 0 0 1 339.502 19.678 A 28.555 28.555 0 0 1 343.1 19.897 A 25.088 25.088 0 0 1 344.238 20.068 Z" id="5" vector-effect="non-scaling-stroke"/><path d="M 380.127 75.977 L 380.127 4.59 L 405.029 4.59 Q 419.58 4.59 426.636 8.911 A 14.035 14.035 0 0 1 433.438 19.076 A 20.472 20.472 0 0 1 433.691 22.363 A 19.55 19.55 0 0 1 433.038 27.526 A 15.607 15.607 0 0 1 430.615 32.617 Q 427.539 36.865 422.51 38.086 L 422.51 38.574 A 23.828 23.828 0 0 1 426.558 40.02 Q 430.151 41.71 432.129 44.434 Q 435.107 48.535 435.107 55.078 A 20.726 20.726 0 0 1 433.914 62.261 A 17.87 17.87 0 0 1 427.808 70.386 A 25.172 25.172 0 0 1 419.338 74.535 Q 414.307 75.977 407.91 75.977 L 380.127 75.977 Z M 405.811 46.094 L 399.414 46.094 L 399.414 61.084 L 406.201 61.084 Q 415.234 61.084 415.234 53.467 Q 415.234 49.902 412.817 47.998 Q 410.971 46.543 407.857 46.2 A 18.693 18.693 0 0 0 405.811 46.094 Z M 399.414 19.189 L 399.414 31.982 L 405.225 31.982 Q 408.015 31.982 409.956 31.21 A 7.253 7.253 0 0 0 411.646 30.273 A 5.531 5.531 0 0 0 413.791 26.683 A 8.463 8.463 0 0 0 413.916 25.195 Q 413.916 19.358 405.336 19.194 A 26.331 26.331 0 0 0 404.834 19.189 L 399.414 19.189 Z" id="7" vector-effect="non-scaling-stroke"/><path d="M 440.298 65.055 A 12.143 12.143 0 0 0 439.99 67.871 A 11.832 11.832 0 0 0 440.21 70.212 A 7.947 7.947 0 0 0 442.773 74.756 A 8.664 8.664 0 0 0 443.968 75.635 Q 445.426 76.526 447.31 76.909 A 15.474 15.474 0 0 0 450.391 77.197 Q 452.368 77.197 453.985 76.758 A 8.819 8.819 0 0 0 457.739 74.731 A 7.992 7.992 0 0 0 460.071 70.723 A 11.666 11.666 0 0 0 460.4 67.871 Q 460.4 66.239 460.059 64.878 A 7.935 7.935 0 0 0 457.812 60.938 Q 456.064 59.288 453.289 58.753 A 15.327 15.327 0 0 0 450.391 58.496 A 18.655 18.655 0 0 0 448.691 58.57 Q 444.848 58.922 442.651 60.938 A 7.932 7.932 0 0 0 440.298 65.055 Z" id="8" vector-effect="non-scaling-stroke"/><path d="M 545.166 75.977 L 498.389 75.977 L 498.389 4.59 L 517.676 4.59 L 517.676 60.4 L 545.166 60.4 L 545.166 75.977 Z" id="10" vector-effect="non-scaling-stroke"/><path d="M 604.785 75.977 L 591.553 75.977 L 587.891 68.652 L 587.5 68.652 Q 584.671 72.162 581.763 74.043 A 15.066 15.066 0 0 1 579.639 75.195 A 18.556 18.556 0 0 1 576.004 76.332 Q 573.059 76.953 569.287 76.953 A 20.998 20.998 0 0 1 564.101 76.348 A 14.637 14.637 0 0 1 556.982 72.266 A 15.354 15.354 0 0 1 553.305 65.627 Q 552.643 63.248 552.519 60.414 A 30.465 30.465 0 0 1 552.49 59.082 A 20.044 20.044 0 0 1 553.153 53.768 A 13.741 13.741 0 0 1 558.643 45.923 A 22.372 22.372 0 0 1 564.291 43.124 Q 567.06 42.177 570.441 41.65 A 55.85 55.85 0 0 1 576.465 41.064 L 585.693 40.771 L 585.693 39.99 A 10.031 10.031 0 0 0 585.371 37.327 Q 584.53 34.279 581.494 33.457 A 9.736 9.736 0 0 0 578.955 33.154 A 23.656 23.656 0 0 0 574.462 33.628 Q 570.045 34.487 564.386 36.904 A 82.644 82.644 0 0 0 563.574 37.256 L 558.057 24.658 Q 567.725 19.678 582.471 19.678 A 34.534 34.534 0 0 1 588.938 20.246 Q 592.65 20.954 595.556 22.546 A 17.792 17.792 0 0 1 598.95 24.951 A 17.246 17.246 0 0 1 604.311 34.636 A 25.661 25.661 0 0 1 604.785 39.697 L 604.785 75.977 Z M 585.791 55.566 L 585.791 51.27 L 581.396 51.465 A 19.976 19.976 0 0 0 577.986 51.855 Q 571.977 53.132 571.973 58.391 A 9.644 9.644 0 0 0 571.973 58.398 A 6.84 6.84 0 0 0 572.251 60.439 Q 573.201 63.477 577.393 63.477 A 9.088 9.088 0 0 0 580.885 62.819 A 8.536 8.536 0 0 0 583.325 61.279 A 7.213 7.213 0 0 0 585.781 56.001 A 9.685 9.685 0 0 0 585.791 55.566 Z" id="11" vector-effect="non-scaling-stroke"/><path d="M 636.865 70.557 L 635.986 70.557 Q 636.823 76.087 636.863 77.636 A 5.66 5.66 0 0 1 636.865 77.783 L 636.865 100 L 617.773 100 L 617.773 20.654 L 633.301 20.654 L 635.986 27.686 L 636.865 27.686 A 18.812 18.812 0 0 1 641.642 22.651 Q 645.587 19.864 650.854 19.689 A 21.423 21.423 0 0 1 651.563 19.678 A 17.635 17.635 0 0 1 658.809 21.123 Q 662.607 22.813 665.379 26.478 A 21.754 21.754 0 0 1 665.967 27.295 A 26.869 26.869 0 0 1 669.538 35.044 Q 671.191 40.723 671.191 48.193 A 53.356 53.356 0 0 1 670.605 56.361 Q 669.405 64.096 665.747 69.263 A 18.66 18.66 0 0 1 660.463 74.383 Q 656.368 76.953 650.977 76.953 A 21.71 21.71 0 0 1 646.821 76.572 A 17.174 17.174 0 0 1 643.457 75.562 Q 640.647 74.384 637.873 71.616 A 28.82 28.82 0 0 1 636.865 70.557 Z M 636.865 46.582 L 636.865 48.096 Q 636.865 55.225 638.77 58.398 Q 640.674 61.572 644.775 61.572 A 6.631 6.631 0 0 0 647.057 61.2 Q 648.81 60.562 649.867 58.829 A 7.437 7.437 0 0 0 650.098 58.423 Q 651.758 55.273 651.758 47.998 Q 651.758 40.869 650.098 37.769 Q 648.438 34.668 644.58 34.668 A 9.114 9.114 0 0 0 642.335 34.926 A 5.557 5.557 0 0 0 638.696 37.671 Q 637.104 40.509 636.886 45.943 A 41.696 41.696 0 0 0 636.865 46.582 Z" id="12" vector-effect="non-scaling-stroke"/><path d="M 701.172 70.557 L 700.293 70.557 Q 701.13 76.087 701.17 77.636 A 5.66 5.66 0 0 1 701.172 77.783 L 701.172 100 L 682.08 100 L 682.08 20.654 L 697.607 20.654 L 700.293 27.686 L 701.172 27.686 A 18.812 18.812 0 0 1 705.948 22.651 Q 709.893 19.864 715.161 19.689 A 21.423 21.423 0 0 1 715.869 19.678 A 17.635 17.635 0 0 1 723.115 21.123 Q 726.913 22.813 729.685 26.478 A 21.754 21.754 0 0 1 730.273 27.295 A 26.869 26.869 0 0 1 733.845 35.044 Q 735.498 40.723 735.498 48.193 A 53.356 53.356 0 0 1 734.912 56.361 Q 733.712 64.096 730.054 69.263 A 18.66 18.66 0 0 1 724.769 74.383 Q 720.675 76.953 715.283 76.953 A 21.71 21.71 0 0 1 711.128 76.572 A 17.174 17.174 0 0 1 707.764 75.562 Q 704.954 74.384 702.179 71.616 A 28.82 28.82 0 0 1 701.172 70.557 Z M 701.172 46.582 L 701.172 48.096 Q 701.172 55.225 703.076 58.398 Q 704.98 61.572 709.082 61.572 A 6.631 6.631 0 0 0 711.363 61.2 Q 713.117 60.562 714.174 58.829 A 7.437 7.437 0 0 0 714.404 58.423 Q 716.064 55.273 716.064 47.998 Q 716.064 40.869 714.404 37.769 Q 712.744 34.668 708.887 34.668 A 9.114 9.114 0 0 0 706.642 34.926 A 5.557 5.557 0 0 0 703.003 37.671 Q 701.411 40.509 701.193 45.943 A 41.696 41.696 0 0 0 701.172 46.582 Z" id="13" vector-effect="non-scaling-stroke"/><path d="M 784.521 20.068 L 785.596 20.264 L 783.887 38.281 A 15.666 15.666 0 0 0 782.245 37.972 Q 780.527 37.734 778.178 37.701 A 55.161 55.161 0 0 0 777.393 37.695 A 21.667 21.667 0 0 0 774.147 37.921 Q 772.484 38.174 771.159 38.709 A 8.354 8.354 0 0 0 768.311 40.552 Q 765.479 43.408 765.479 48.779 L 765.479 75.977 L 746.387 75.977 L 746.387 20.654 L 760.596 20.654 L 763.574 29.492 L 764.502 29.492 A 19.117 19.117 0 0 1 771.167 22.388 A 18.435 18.435 0 0 1 775.18 20.445 A 14.421 14.421 0 0 1 779.785 19.678 A 28.555 28.555 0 0 1 783.383 19.897 A 25.088 25.088 0 0 1 784.521 20.068 Z" id="14" vector-effect="non-scaling-stroke"/><path d="M 840.625 75.977 L 827.393 75.977 L 823.73 68.652 L 823.34 68.652 Q 820.511 72.162 817.603 74.043 A 15.066 15.066 0 0 1 815.479 75.195 A 18.556 18.556 0 0 1 811.843 76.332 Q 808.899 76.953 805.127 76.953 A 20.998 20.998 0 0 1 799.941 76.348 A 14.637 14.637 0 0 1 792.822 72.266 A 15.354 15.354 0 0 1 789.144 65.627 Q 788.483 63.248 788.359 60.414 A 30.465 30.465 0 0 1 788.33 59.082 A 20.044 20.044 0 0 1 788.992 53.768 A 13.741 13.741 0 0 1 794.482 45.923 A 22.372 22.372 0 0 1 800.131 43.124 Q 802.899 42.177 806.281 41.65 A 55.85 55.85 0 0 1 812.305 41.064 L 821.533 40.771 L 821.533 39.99 A 10.031 10.031 0 0 0 821.211 37.327 Q 820.37 34.279 817.334 33.457 A 9.736 9.736 0 0 0 814.795 33.154 A 23.656 23.656 0 0 0 810.302 33.628 Q 805.885 34.487 800.225 36.904 A 82.644 82.644 0 0 0 799.414 37.256 L 793.896 24.658 Q 803.564 19.678 818.311 19.678 A 34.534 34.534 0 0 1 824.778 20.246 Q 828.49 20.954 831.396 22.546 A 17.792 17.792 0 0 1 834.79 24.951 A 17.246 17.246 0 0 1 840.151 34.636 A 25.661 25.661 0 0 1 840.625 39.697 L 840.625 75.977 Z M 821.631 55.566 L 821.631 51.27 L 817.236 51.465 A 19.976 19.976 0 0 0 813.826 51.855 Q 807.817 53.132 807.813 58.391 A 9.644 9.644 0 0 0 807.812 58.398 A 6.84 6.84 0 0 0 808.091 60.439 Q 809.04 63.477 813.232 63.477 A 9.088 9.088 0 0 0 816.725 62.819 A 8.536 8.536 0 0 0 819.165 61.279 A 7.213 7.213 0 0 0 821.621 56.001 A 9.685 9.685 0 0 0 821.631 55.566 Z" id="15" vector-effect="non-scaling-stroke"/><path d="M 907.617 75.977 L 888.525 75.977 L 888.525 45.801 Q 888.525 40.749 887.195 37.969 A 8.163 8.163 0 0 0 886.938 37.476 A 5.2 5.2 0 0 0 883.233 34.793 A 7.463 7.463 0 0 0 881.836 34.668 A 9.448 9.448 0 0 0 878.984 35.073 A 7.041 7.041 0 0 0 874.854 38.525 A 12.315 12.315 0 0 0 873.815 41.132 Q 873.009 43.956 872.788 48.283 A 68.424 68.424 0 0 0 872.705 51.758 L 872.705 75.977 L 853.613 75.977 L 853.613 20.654 L 868.018 20.654 L 870.41 27.49 L 871.533 27.49 A 15.126 15.126 0 0 1 878.296 21.631 A 21.681 21.681 0 0 1 884.123 19.964 A 28.432 28.432 0 0 1 888.232 19.678 A 25.444 25.444 0 0 1 894.062 20.307 Q 898.847 21.432 902.089 24.572 A 16.278 16.278 0 0 1 902.515 25 A 17.409 17.409 0 0 1 906.675 32.484 Q 907.441 35.208 907.584 38.461 A 34.708 34.708 0 0 1 907.617 39.99 L 907.617 75.977 Z" id="16" vector-effect="non-scaling-stroke"/><path d="M 953.027 27.783 L 953.418 27.783 A 91.73 91.73 0 0 1 952.49 14.795 L 952.49 0 L 971.729 0 L 971.729 75.977 L 957.324 75.977 L 953.223 68.994 L 952.49 68.994 A 16.713 16.713 0 0 1 947.139 74.504 Q 943.21 76.953 937.793 76.953 A 17.444 17.444 0 0 1 931.459 75.827 A 16.155 16.155 0 0 1 927.466 73.584 Q 923.047 70.215 920.63 63.672 A 37.389 37.389 0 0 1 918.78 56.34 Q 918.213 52.622 918.213 48.389 Q 918.213 39.015 920.835 32.476 A 24.84 24.84 0 0 1 923.633 27.295 A 18.114 18.114 0 0 1 929.49 21.891 Q 933.051 19.885 937.578 19.697 A 22.82 22.82 0 0 1 938.525 19.678 A 19.621 19.621 0 0 1 942.75 20.113 A 15.273 15.273 0 0 1 946.655 21.533 A 14.43 14.43 0 0 1 949.894 23.926 Q 951.13 25.12 952.274 26.692 A 27.181 27.181 0 0 1 953.027 27.783 Z M 954.102 50.098 L 954.102 48.584 Q 954.102 41.26 952.002 38.159 Q 949.902 35.059 945.41 35.059 A 6.193 6.193 0 0 0 940.488 37.307 A 8.883 8.883 0 0 0 939.575 38.599 Q 937.5 42.139 937.5 48.682 Q 937.5 54.972 939.5 58.332 A 9.375 9.375 0 0 0 939.6 58.496 A 7.513 7.513 0 0 0 941.472 60.582 Q 943.033 61.745 945.159 61.854 A 8.709 8.709 0 0 0 945.605 61.865 A 11.446 11.446 0 0 0 947.973 61.637 Q 950.724 61.055 952.075 58.984 A 9.819 9.819 0 0 0 953.153 56.665 Q 954.005 54.062 954.102 50.098 Z" id="17" vector-effect="non-scaling-stroke"/>
  </g>
</svg>