<svg class="lines" preserveaspectratio="xMidYMid meet" height="100%" width="100%" viewBox="0 0 809.082 95.313">
  <g id="svgGroup" stroke-linecap="round" fill-rule="evenodd" font-size="9pt" stroke-width="0.1mm">
      <path d="M 53.271 75 L 45.898 55.078 L 13.623 55.078 L 6.299 75 L 0 75 L 26.904 3.906 L 32.617 3.906 L 59.521 75 L 53.271 75 Z M 29.736 11.23 L 15.479 49.951 L 43.994 49.951 L 29.736 11.23 Z" id="0" vector-effect="non-scaling-stroke"/><path d="M 93.164 21.826 L 93.018 27.148 A 20.856 20.856 0 0 0 90.224 26.834 A 24.572 24.572 0 0 0 89.062 26.807 Q 83.594 26.807 79.81 29.858 A 14.645 14.645 0 0 0 76.082 34.455 Q 75.069 36.36 74.414 38.721 L 74.414 75 L 68.604 75 L 68.604 22.168 L 74.316 22.168 L 74.414 30.566 A 18.475 18.475 0 0 1 78.164 25.326 Q 81.956 21.708 87.643 21.256 A 20.989 20.989 0 0 1 89.307 21.191 Q 91.748 21.191 93.164 21.826 Z" id="1" vector-effect="non-scaling-stroke"/><path d="M 105.469 8.643 L 111.328 8.643 L 111.328 22.168 L 122.266 22.168 L 122.266 26.953 L 111.328 26.953 L 111.328 62.158 A 19.536 19.536 0 0 0 111.454 64.452 Q 111.752 66.964 112.757 68.475 A 5.608 5.608 0 0 0 112.915 68.701 A 4.917 4.917 0 0 0 115.372 70.438 Q 116.589 70.85 118.213 70.85 Q 119.678 70.85 122.949 70.361 L 123.193 75.146 A 11.594 11.594 0 0 1 121.419 75.619 Q 119.568 75.971 117.024 75.976 A 37.48 37.48 0 0 1 116.943 75.977 A 16.275 16.275 0 0 1 113.666 75.669 Q 111.757 75.276 110.319 74.382 A 8.097 8.097 0 0 1 108.203 72.485 A 11.281 11.281 0 0 1 106.408 69.029 Q 105.879 67.429 105.648 65.47 A 27.908 27.908 0 0 1 105.469 62.207 L 105.469 26.953 L 95.752 26.953 L 95.752 22.168 L 105.469 22.168 L 105.469 8.643 Z" id="2" vector-effect="non-scaling-stroke"/><path d="M 140.186 0 L 140.186 31.104 Q 143.066 26.367 147.559 23.779 Q 152.051 21.191 157.373 21.191 A 23.918 23.918 0 0 1 162.203 21.647 Q 165.063 22.237 167.229 23.592 A 12.325 12.325 0 0 1 170.02 25.977 A 15.145 15.145 0 0 1 172.829 30.972 Q 174.191 34.874 174.219 40.332 L 174.219 75 L 168.408 75 L 168.408 40.283 A 27.558 27.558 0 0 0 168.151 36.586 Q 167.529 32.228 165.405 29.736 Q 162.944 26.848 158.024 26.366 A 21.232 21.232 0 0 0 155.957 26.27 A 14.779 14.779 0 0 0 146.362 29.663 A 18.898 18.898 0 0 0 141.322 36.086 A 24.055 24.055 0 0 0 140.186 38.818 L 140.186 75 L 134.375 75 L 134.375 0 L 140.186 0 Z" id="3" vector-effect="non-scaling-stroke"/><path d="M 223.34 75 L 223.242 68.311 Q 217.969 75.977 206.396 75.977 A 23.162 23.162 0 0 1 201.303 75.451 Q 196.512 74.371 193.555 71.069 Q 190.099 67.21 189.3 60.438 A 36.456 36.456 0 0 1 189.062 56.543 L 189.063 22.168 L 194.873 22.168 L 194.873 55.811 A 27.385 27.385 0 0 0 195.377 61.317 Q 197.114 69.74 204.841 70.758 A 17.143 17.143 0 0 0 207.08 70.898 Q 219.775 70.898 223.145 60.4 L 223.145 22.168 L 229.004 22.168 L 229.004 75 L 223.34 75 Z" id="4" vector-effect="non-scaling-stroke"/><path d="M 268.75 21.826 L 268.604 27.148 A 20.856 20.856 0 0 0 265.81 26.834 A 24.572 24.572 0 0 0 264.648 26.807 Q 259.18 26.807 255.396 29.858 A 14.645 14.645 0 0 0 251.668 34.455 Q 250.655 36.36 250 38.721 L 250 75 L 244.189 75 L 244.189 22.168 L 249.902 22.168 L 250 30.566 A 18.475 18.475 0 0 1 253.75 25.326 Q 257.542 21.708 263.229 21.256 A 20.989 20.989 0 0 1 264.893 21.191 Q 267.334 21.191 268.75 21.826 Z" id="5" vector-effect="non-scaling-stroke"/><path d="M 327.295 75 L 303.516 75 L 303.516 3.906 L 324.512 3.906 A 44.362 44.362 0 0 1 330.962 4.344 Q 337.738 5.342 341.846 8.618 A 15.2 15.2 0 0 1 347.287 17.7 A 23.426 23.426 0 0 1 347.754 22.51 A 17.041 17.041 0 0 1 346.906 27.966 A 14.977 14.977 0 0 1 344.751 32.104 A 16.072 16.072 0 0 1 337.795 37.464 A 19.989 19.989 0 0 1 336.523 37.939 A 17.075 17.075 0 0 1 346.509 44.043 A 17.022 17.022 0 0 1 350.293 54.98 Q 350.293 64.404 344.214 69.702 A 20.205 20.205 0 0 1 336.445 73.826 Q 333.409 74.707 329.78 74.927 A 41.064 41.064 0 0 1 327.295 75 Z M 328.027 40.82 L 309.521 40.82 L 309.521 69.922 L 327.539 69.922 A 24.51 24.51 0 0 0 332.568 69.436 Q 336.842 68.54 339.771 65.991 A 12.86 12.86 0 0 0 344.055 58.085 A 18.724 18.724 0 0 0 344.287 55.078 A 16.224 16.224 0 0 0 343.679 50.522 A 12.293 12.293 0 0 0 339.966 44.653 Q 336.073 41.2 329.505 40.858 A 28.398 28.398 0 0 0 328.027 40.82 Z M 309.521 9.033 L 309.521 35.791 L 325.928 35.791 A 27.499 27.499 0 0 0 330.497 35.345 Q 332.918 34.887 334.854 33.965 A 13.167 13.167 0 0 0 337.573 32.251 A 10.968 10.968 0 0 0 341.364 25.815 A 16.809 16.809 0 0 0 341.699 22.363 A 17.253 17.253 0 0 0 341.285 18.452 Q 340.669 15.808 339.139 13.93 A 10.02 10.02 0 0 0 337.427 12.28 A 13.61 13.61 0 0 0 333.469 10.254 Q 329.84 9.042 324.592 9.033 A 45.816 45.816 0 0 0 324.512 9.033 L 309.521 9.033 Z" id="7" vector-effect="non-scaling-stroke"/><path d="M 363.192 69.836 A 4.407 4.407 0 0 0 362.891 71.484 A 4.983 4.983 0 0 0 362.908 71.902 A 3.707 3.707 0 0 0 363.989 74.292 A 3.445 3.445 0 0 0 364.254 74.531 Q 364.902 75.057 365.799 75.261 A 5.594 5.594 0 0 0 367.041 75.391 Q 368.994 75.391 370.117 74.292 A 3.603 3.603 0 0 0 371.025 72.863 A 4.25 4.25 0 0 0 371.24 71.484 A 4.09 4.09 0 0 0 370.117 68.579 A 3.643 3.643 0 0 0 368.338 67.537 A 5.148 5.148 0 0 0 367.041 67.383 Q 365.088 67.383 363.989 68.579 A 4.09 4.09 0 0 0 363.192 69.836 Z" id="8" vector-effect="non-scaling-stroke"/><path d="M 419.043 3.906 L 419.043 69.922 L 454.15 69.922 L 454.15 75 L 412.988 75 L 412.988 3.906 L 419.043 3.906 Z" id="10" vector-effect="non-scaling-stroke"/><path d="M 503.906 75 L 497.656 75 Q 496.777 72.51 496.533 67.627 A 20.376 20.376 0 0 1 488.696 73.804 A 24.002 24.002 0 0 1 478.613 75.977 A 22.255 22.255 0 0 1 473.207 75.354 A 15.924 15.924 0 0 1 466.284 71.729 A 13.741 13.741 0 0 1 461.591 61.789 A 17.342 17.342 0 0 1 461.572 60.986 Q 461.572 53.7 467.3 49.288 A 18.748 18.748 0 0 1 467.993 48.779 Q 472.984 45.288 481.027 44.51 A 50.567 50.567 0 0 1 485.889 44.287 L 496.484 44.287 L 496.484 38.281 A 14.824 14.824 0 0 0 496.033 34.522 A 10.512 10.512 0 0 0 492.993 29.37 A 11.177 11.177 0 0 0 488.722 26.941 Q 487.008 26.391 484.929 26.211 A 24.499 24.499 0 0 0 482.812 26.123 A 19.596 19.596 0 0 0 478.2 26.639 A 14.254 14.254 0 0 0 472.705 29.248 A 11.853 11.853 0 0 0 470.385 31.602 A 8.577 8.577 0 0 0 468.701 36.768 L 462.842 36.719 Q 462.842 30.42 468.701 25.806 A 21.35 21.35 0 0 1 479.124 21.462 A 28.392 28.392 0 0 1 483.105 21.191 A 28.594 28.594 0 0 1 488.74 21.714 Q 492.148 22.399 494.796 23.984 A 15.913 15.913 0 0 1 497.046 25.61 A 14.823 14.823 0 0 1 501.944 34.368 A 21.53 21.53 0 0 1 502.295 37.939 L 502.295 62.939 A 58.552 58.552 0 0 0 502.422 66.946 Q 502.688 70.799 503.505 73.329 A 13.19 13.19 0 0 0 503.906 74.414 L 503.906 75 Z M 496.484 60.4 L 496.484 48.779 L 486.035 48.779 Q 477.295 48.877 472.363 51.978 A 11.645 11.645 0 0 0 469.505 54.444 A 9.27 9.27 0 0 0 467.432 60.498 A 9.775 9.775 0 0 0 468.362 64.792 A 9.796 9.796 0 0 0 470.728 67.871 A 11.352 11.352 0 0 0 476.194 70.515 A 16.068 16.068 0 0 0 479.297 70.801 A 20.706 20.706 0 0 0 485.975 69.749 A 18.676 18.676 0 0 0 489.771 67.969 Q 494.385 65.137 496.484 60.4 Z" id="11" vector-effect="non-scaling-stroke"/><path d="M 560.352 48.291 L 560.352 49.121 A 45.233 45.233 0 0 1 559.705 57.011 Q 558.934 61.359 557.243 64.848 A 23.284 23.284 0 0 1 554.883 68.726 Q 549.59 75.743 540.822 75.969 A 22.798 22.798 0 0 1 540.234 75.977 Q 529.395 75.977 523.633 68.359 L 523.633 95.313 L 517.822 95.313 L 517.822 22.168 L 523.242 22.168 L 523.535 29.639 Q 529.248 21.191 540.088 21.191 A 20.027 20.027 0 0 1 546.989 22.331 A 17.237 17.237 0 0 1 554.956 28.369 Q 559.261 34.096 560.131 43.366 A 52.738 52.738 0 0 1 560.352 48.291 Z M 523.633 36.377 L 523.633 61.719 A 16.69 16.69 0 0 0 526.518 66.095 A 14.691 14.691 0 0 0 529.639 68.652 A 16.102 16.102 0 0 0 535.679 70.811 A 21.038 21.038 0 0 0 538.867 71.045 A 14.735 14.735 0 0 0 544.322 70.074 Q 547.916 68.655 550.366 65.161 A 19.677 19.677 0 0 0 552.96 59.756 Q 553.774 57.181 554.156 54.051 A 49.338 49.338 0 0 0 554.492 48.096 Q 554.492 40.82 552.342 35.745 A 19.179 19.179 0 0 0 550.342 32.129 A 13.15 13.15 0 0 0 540.847 26.392 A 17.163 17.163 0 0 0 538.77 26.27 A 18.648 18.648 0 0 0 534.103 26.829 A 14.712 14.712 0 0 0 529.541 28.857 A 15.312 15.312 0 0 0 524.889 33.855 A 19.959 19.959 0 0 0 523.633 36.377 Z" id="12" vector-effect="non-scaling-stroke"/><path d="M 615.771 48.291 L 615.771 49.121 A 45.233 45.233 0 0 1 615.125 57.011 Q 614.354 61.359 612.663 64.848 A 23.284 23.284 0 0 1 610.303 68.726 Q 605.01 75.743 596.242 75.969 A 22.798 22.798 0 0 1 595.654 75.977 Q 584.814 75.977 579.053 68.359 L 579.053 95.313 L 573.242 95.313 L 573.242 22.168 L 578.662 22.168 L 578.955 29.639 Q 584.668 21.191 595.508 21.191 A 20.027 20.027 0 0 1 602.409 22.331 A 17.237 17.237 0 0 1 610.376 28.369 Q 614.681 34.096 615.551 43.366 A 52.738 52.738 0 0 1 615.771 48.291 Z M 579.053 36.377 L 579.053 61.719 A 16.69 16.69 0 0 0 581.938 66.095 A 14.691 14.691 0 0 0 585.059 68.652 A 16.102 16.102 0 0 0 591.099 70.811 A 21.038 21.038 0 0 0 594.287 71.045 A 14.735 14.735 0 0 0 599.742 70.074 Q 603.336 68.655 605.786 65.161 A 19.677 19.677 0 0 0 608.38 59.756 Q 609.194 57.181 609.575 54.051 A 49.338 49.338 0 0 0 609.912 48.096 Q 609.912 40.82 607.761 35.745 A 19.179 19.179 0 0 0 605.762 32.129 A 13.15 13.15 0 0 0 596.266 26.392 A 17.163 17.163 0 0 0 594.189 26.27 A 18.648 18.648 0 0 0 589.523 26.829 A 14.712 14.712 0 0 0 584.961 28.857 A 15.312 15.312 0 0 0 580.309 33.855 A 19.959 19.959 0 0 0 579.053 36.377 Z" id="13" vector-effect="non-scaling-stroke"/><path d="M 653.271 21.826 L 653.125 27.148 A 20.856 20.856 0 0 0 650.332 26.834 A 24.572 24.572 0 0 0 649.17 26.807 Q 643.701 26.807 639.917 29.858 A 14.645 14.645 0 0 0 636.189 34.455 Q 635.176 36.36 634.521 38.721 L 634.521 75 L 628.711 75 L 628.711 22.168 L 634.424 22.168 L 634.521 30.566 A 18.475 18.475 0 0 1 638.272 25.326 Q 642.063 21.708 647.75 21.256 A 20.989 20.989 0 0 1 649.414 21.191 Q 651.855 21.191 653.271 21.826 Z" id="14" vector-effect="non-scaling-stroke"/><path d="M 700 75 L 693.75 75 Q 692.871 72.51 692.627 67.627 A 20.376 20.376 0 0 1 684.79 73.804 A 24.002 24.002 0 0 1 674.707 75.977 A 22.255 22.255 0 0 1 669.301 75.354 A 15.924 15.924 0 0 1 662.378 71.729 A 13.741 13.741 0 0 1 657.684 61.789 A 17.342 17.342 0 0 1 657.666 60.986 Q 657.666 53.7 663.393 49.288 A 18.748 18.748 0 0 1 664.087 48.779 Q 669.077 45.288 677.121 44.51 A 50.567 50.567 0 0 1 681.982 44.287 L 692.578 44.287 L 692.578 38.281 A 14.824 14.824 0 0 0 692.127 34.522 A 10.512 10.512 0 0 0 689.087 29.37 A 11.177 11.177 0 0 0 684.816 26.941 Q 683.101 26.391 681.023 26.211 A 24.499 24.499 0 0 0 678.906 26.123 A 19.596 19.596 0 0 0 674.294 26.639 A 14.254 14.254 0 0 0 668.799 29.248 A 11.853 11.853 0 0 0 666.478 31.602 A 8.577 8.577 0 0 0 664.795 36.768 L 658.936 36.719 Q 658.936 30.42 664.795 25.806 A 21.35 21.35 0 0 1 675.218 21.462 A 28.392 28.392 0 0 1 679.199 21.191 A 28.594 28.594 0 0 1 684.834 21.714 Q 688.242 22.399 690.89 23.984 A 15.913 15.913 0 0 1 693.14 25.61 A 14.823 14.823 0 0 1 698.037 34.368 A 21.53 21.53 0 0 1 698.389 37.939 L 698.389 62.939 A 58.552 58.552 0 0 0 698.516 66.946 Q 698.781 70.799 699.599 73.329 A 13.19 13.19 0 0 0 700 74.414 L 700 75 Z M 692.578 60.4 L 692.578 48.779 L 682.129 48.779 Q 673.389 48.877 668.457 51.978 A 11.645 11.645 0 0 0 665.599 54.444 A 9.27 9.27 0 0 0 663.525 60.498 A 9.775 9.775 0 0 0 664.456 64.792 A 9.796 9.796 0 0 0 666.821 67.871 A 11.352 11.352 0 0 0 672.288 70.515 A 16.068 16.068 0 0 0 675.391 70.801 A 20.706 20.706 0 0 0 682.069 69.749 A 18.676 18.676 0 0 0 685.864 67.969 Q 690.479 65.137 692.578 60.4 Z" id="15" vector-effect="non-scaling-stroke"/><path d="M 713.965 22.168 L 719.531 22.168 L 719.727 31.201 A 22.757 22.757 0 0 1 723.541 26.442 A 19.391 19.391 0 0 1 727.148 23.755 A 19.288 19.288 0 0 1 736.963 21.191 A 23.918 23.918 0 0 1 741.793 21.647 Q 744.653 22.237 746.818 23.592 A 12.325 12.325 0 0 1 749.609 25.977 A 15.145 15.145 0 0 1 752.419 30.972 Q 753.781 34.874 753.809 40.332 L 753.809 75 L 747.998 75 L 747.998 40.283 A 27.558 27.558 0 0 0 747.741 36.586 Q 747.118 32.228 744.995 29.736 Q 742.534 26.848 737.614 26.366 A 21.232 21.232 0 0 0 735.547 26.27 A 14.779 14.779 0 0 0 725.952 29.663 A 18.898 18.898 0 0 0 720.912 36.086 A 24.055 24.055 0 0 0 719.775 38.818 L 719.775 75 L 713.965 75 L 713.965 22.168 Z" id="16" vector-effect="non-scaling-stroke"/><path d="M 766.553 48.779 L 766.553 48.096 Q 766.553 38.693 769.76 32.213 A 23.536 23.536 0 0 1 772.046 28.491 A 17.415 17.415 0 0 1 784.668 21.305 A 22.573 22.573 0 0 1 786.963 21.191 Q 797.656 21.191 803.271 29.639 L 803.271 0 L 809.082 0 L 809.082 75 L 803.613 75 L 803.369 67.969 Q 797.754 75.977 786.865 75.977 A 18.285 18.285 0 0 1 778.85 74.252 Q 775.265 72.532 772.508 69.094 A 23.019 23.019 0 0 1 772.144 68.628 Q 767.339 62.313 766.663 52.193 A 51.26 51.26 0 0 1 766.553 48.779 Z M 803.271 61.377 L 803.271 36.572 Q 798.988 26.854 789.23 26.303 A 21.156 21.156 0 0 0 788.037 26.27 Q 780.733 26.27 776.64 31.947 A 16.638 16.638 0 0 0 776.562 32.056 A 19.103 19.103 0 0 0 774.004 37.352 Q 773.19 39.911 772.806 43.044 A 50.026 50.026 0 0 0 772.461 49.121 Q 772.461 56.257 774.481 61.264 A 19.278 19.278 0 0 0 776.514 65.063 A 12.854 12.854 0 0 0 785.716 70.756 A 16.852 16.852 0 0 0 787.939 70.898 A 18.941 18.941 0 0 0 794.348 69.873 Q 799.486 68.037 802.465 62.909 A 21.333 21.333 0 0 0 803.271 61.377 Z" id="17" vector-effect="non-scaling-stroke"/>
  </g>
</svg>